#!OML:ASF I:\Actors\actors\Patient Classification 2\Patient 1\Session 1\actor1.ASF
:FULLY-SPECIFIED
:DEGREES
626
root -0.739701 18.7021 5.48179 9.67562 -7.66093 -2.15357
lowerback 21.1218 -0.248555 1.75029
upperback 2.30132 0.113793 0.496177
thorax -9.30942 -0.00823613 -0.488747
lowerneck -10.6358 -10.8572 -9.808
upperneck 15.8319 -15.2333 11.2935
head 8.29772 -6.91952 3.57718
rclavicle 8.29926e-015 -1.96797e-014
rhumerus -87.8556 23.5705 -107.365
rradius 110.404
rwrist -9.99448
rhand -11.8033 -43.4187
rfingers 7.12502
rthumb 14.2466 -72.9101
lclavicle 8.29926e-015 -1.96797e-014
lhumerus -86.9296 -25.2222 113.643
lradius 111.866
lwrist 28.6786
lhand -25.3626 -21.2162
lfingers 7.12502
lthumb 1.16132 8.76035
rfemur -9.22725 1.00893 15.3309
rtibia 8.70213
rfoot -14.2142 -9.1005
rtoes -12.7611
lfemur -17.6738 1.18841 -12.1067
ltibia 28.0902
lfoot -21.4714 11.4563
ltoes -56.1295
627
root -0.738294 18.7031 5.48332 9.49698 -7.58553 -1.83027
lowerback 21.2335 -0.284587 1.51882
upperback 2.39394 0.00758451 0.4289
thorax -9.26964 -0.0505168 -0.399875
lowerneck -10.3313 -11.1377 -9.96603
upperneck 15.5244 -15.5843 11.2983
head 8.19451 -7.11359 3.56844
rclavicle -1.06598e-014 6.70898e-015
rhumerus -87.8066 23.6757 -107.339
rradius 110.417
rwrist -10.0203
rhand -11.7692 -43.4031
rfingers 7.12502
rthumb 14.2794 -72.8922
lclavicle -1.06598e-014 6.70898e-015
lhumerus -86.8724 -25.2316 113.619
lradius 111.991
lwrist 28.5321
lhand -25.4503 -20.6365
lfingers 7.12502
lthumb 1.07664 9.34048
rfemur -9.03808 0.883036 14.9645
rtibia 8.68743
rfoot -14.2491 -9.06663
rtoes -12.7487
lfemur -17.502 1.1113 -12.4685
ltibia 28.0263
lfoot -21.4395 11.4202
ltoes -56.2029
628
root -0.738503 18.7038 5.47721 9.4979 -7.60275 -1.86828
lowerback 21.3514 -0.307622 1.56209
upperback 2.40357 -0.0077512 0.455011
thorax -9.32321 -0.0592441 -0.391418
lowerneck -10.1345 -11.3194 -10.0477
upperneck 15.3478 -15.8013 11.2181
head 8.1253 -7.23936 3.53438
rclavicle 5.31749e-015 2.51463e-014
rhumerus -87.773 23.7621 -107.307
rradius 110.417
rwrist -10.0309
rhand -11.5946 -43.2928
rfingers 7.12502
rthumb 14.4476 -72.7699
lclavicle 5.31749e-015 2.51463e-014
lhumerus -86.903 -25.1977 113.662
lradius 111.858
lwrist 28.635
lhand -25.442 -21.3979
lfingers 7.12502
lthumb 1.08467 8.5791
rfemur -9.10078 0.907529 15.0056
rtibia 8.77064
rfoot -14.2749 -9.0597
rtoes -12.7915
lfemur -17.4733 1.13362 -12.422
ltibia 27.934
lfoot -21.3525 11.442
ltoes -56.2185
629
root -0.739258 18.7038 5.47171 9.50378 -7.67285 -1.87358
lowerback 21.4445 -0.313719 1.54575
upperback 2.40404 -0.0165883 0.466828
thorax -9.37331 -0.0629639 -0.366376
lowerneck -9.92933 -11.3741 -10.0393
upperneck 15.0993 -15.8509 11.1402
head 8.00454 -7.28326 3.51398
rclavicle 1.62506e-014 1.23743e-014
rhumerus -87.7922 23.796 -107.295
rradius 110.46
rwrist -10.0266
rhand -11.6381 -43.0452
rfingers 7.12502
rthumb 14.4057 -72.5253
lclavicle 1.62506e-014 1.23743e-014
lhumerus -86.9908 -25.1727 113.684
lradius 111.758
lwrist 28.789
lhand -25.3908 -22.1228
lfingers 7.12502
lthumb 1.1341 7.85395
rfemur -9.16411 0.977421 15.0029
rtibia 8.82189
rfoot -14.259 -9.05022
rtoes -12.7751
lfemur -17.4598 1.18716 -12.4176
ltibia 27.8936
lfoot -21.3301 11.4329
ltoes -56.1144
630
root -0.739281 18.7038 5.46665 9.52452 -7.77384 -1.85892
lowerback 21.4761 -0.311181 1.50671
upperback 2.41064 -0.0213633 0.473524
thorax -9.38321 -0.0637338 -0.335269
lowerneck -9.74252 -11.3353 -10.0586
upperneck 14.8322 -15.7865 11.1775
head 7.88111 -7.26527 3.55087
rclavicle -3.26255e-014 1.21259e-014
rhumerus -87.8604 23.8016 -107.287
rradius 110.56
rwrist -10.0447
rhand -11.755 -42.9449
rfingers 7.12502
rthumb 14.293 -72.433
lclavicle -3.26255e-014 1.21259e-014
lhumerus -87.0843 -25.1477 113.659
lradius 111.853
lwrist 28.8324
lhand -25.3538 -22.1405
lfingers 7.12502
lthumb 1.16988 7.83606
rfemur -9.23898 1.07174 14.9679
rtibia 8.84798
rfoot -14.2492 -9.04565
rtoes -12.5006
lfemur -17.4785 1.25514 -12.4426
ltibia 27.902
lfoot -21.3528 11.435
ltoes -56.0434
631
root -0.738268 18.7037 5.46141 9.53814 -7.85204 -1.85672
lowerback 21.5247 -0.323912 1.51034
upperback 2.40245 -0.0354255 0.480992
thorax -9.41886 -0.0706689 -0.324922
lowerneck -9.64171 -11.2666 -10.1113
upperneck 14.7116 -15.6882 11.2318
head 7.82169 -7.22437 3.59682
rclavicle 4.87022e-015 6.65929e-015
rhumerus -87.9436 23.7766 -107.291
rradius 110.617
rwrist -10.0392
rhand -11.7214 -42.9827
rfingers 7.12502
rthumb 14.3255 -72.4684
lclavicle 4.87022e-015 6.65929e-015
lhumerus -87.1726 -25.1078 113.668
lradius 111.912
lwrist 28.8158
lhand -25.3314 -22.1406
lfingers 7.12502
lthumb 1.19147 7.8358
rfemur -9.32047 1.14593 14.9457
rtibia 8.90648
rfoot -14.3047 -9.04682
rtoes -12.3949
lfemur -17.4965 1.31194 -12.4558
ltibia 27.9072
lfoot -21.3516 11.4644
ltoes -56.0549
632
root -0.738041 18.7033 5.45763 9.53141 -7.91317 -1.83679
lowerback 21.6001 -0.335637 1.50751
upperback 2.39075 -0.0505994 0.47335
thorax -9.47301 -0.0782946 -0.327014
lowerneck -9.62933 -11.1983 -10.1163
upperneck 14.7049 -15.5958 11.2447
head 7.80832 -7.18053 3.61564
rclavicle 8.07563e-015 9.44227e-015
rhumerus -87.9722 23.6713 -107.312
rradius 110.587
rwrist -9.93647
rhand -11.6738 -42.9605
rfingers 7.12502
rthumb 14.3713 -72.443
lclavicle 8.07563e-015 9.44227e-015
lhumerus -87.2238 -25.12 113.689
lradius 111.912
lwrist 28.8251
lhand -25.3136 -22.1681
lfingers 7.12502
lthumb 1.20872 7.80827
rfemur -9.37502 1.20295 14.9152
rtibia 8.97324
rfoot -14.3638 -9.04599
rtoes -12.6012
lfemur -17.4959 1.35257 -12.4838
ltibia 27.9122
lfoot -21.3544 11.491
ltoes -56.0832
633
root -0.737809 18.7035 5.45576 9.53909 -7.95958 -1.81236
lowerback 21.6289 -0.338894 1.52247
upperback 2.39304 -0.0531071 0.451671
thorax -9.48613 -0.080615 -0.358554
lowerneck -9.72707 -11.1379 -9.98464
upperneck 14.7829 -15.5145 11.1437
head 7.82229 -7.13714 3.56926
rclavicle 4.29126e-014 -1.04362e-015
rhumerus -87.9344 23.5332 -107.315
rradius 110.543
rwrist -9.82594
rhand -11.6967 -42.9335
rfingers 7.12502
rthumb 14.3493 -72.4176
lclavicle 4.29126e-014 -1.04362e-015
lhumerus -87.2463 -25.1918 113.689
lradius 111.919
lwrist 28.8582
lhand -25.3088 -22.2491
lfingers 7.12502
lthumb 1.21329 7.72721
rfemur -9.44087 1.24352 14.8831
rtibia 9.05389
rfoot -14.3994 -9.02272
rtoes -12.596
lfemur -17.507 1.37302 -12.5128
ltibia 27.9177
lfoot -21.3814 11.4898
ltoes -56.0529
634
root -0.736611 18.7039 5.45347 9.58697 -8.01636 -1.81904
lowerback 21.6147 -0.330596 1.58793
upperback 2.39307 -0.028691 0.437842
thorax -9.478 -0.0718814 -0.418324
lowerneck -9.81489 -11.0911 -9.8405
upperneck 14.8722 -15.4504 11.0131
head 7.83676 -7.10359 3.50944
rclavicle -4.03781e-014 -2.73329e-015
rhumerus -87.8796 23.4368 -107.283
rradius 110.535
rwrist -9.79974
rhand -11.6828 -43.0338
rfingers 7.12502
rthumb 14.3627 -72.5169
lclavicle -4.03781e-014 -2.73329e-015
lhumerus -87.2091 -25.2432 113.674
lradius 111.878
lwrist 28.8625
lhand -25.2632 -22.3106
lfingers 7.12502
lthumb 1.25735 7.66541
rfemur -9.56289 1.29592 14.8773
rtibia 9.15316
rfoot -14.4188 -9.00272
rtoes -12.4496
lfemur -17.5546 1.40498 -12.5137
ltibia 27.9184
lfoot -21.3915 11.5081
ltoes -55.991
635
root -0.735952 18.7044 5.45018 9.64669 -8.08342 -1.81958
lowerback 21.5902 -0.323159 1.62059
upperback 2.3964 -0.0117302 0.440449
thorax -9.46065 -0.0649916 -0.439132
lowerneck -9.84327 -11.0426 -9.78169
upperneck 14.9484 -15.3839 10.9381
head 7.84808 -7.07173 3.48375
rclavicle -2.33324e-014 3.04141e-014
rhumerus -87.7955 23.4086 -107.243
rradius 110.53
rwrist -9.81129
rhand -11.5935 -43.1299
rfingers 7.12502
rthumb 14.4487 -72.6069
lclavicle -2.33324e-014 3.04141e-014
lhumerus -87.0497 -25.2196 113.602
lradius 111.91
lwrist 28.7762
lhand -25.1747 -21.6391
lfingers 7.12502
lthumb 1.3428 8.33643
rfemur -9.70442 1.35643 14.8644
rtibia 9.24928
rfoot -14.419 -9.01714
rtoes -12.4997
lfemur -17.6154 1.45084 -12.5244
ltibia 27.9112
lfoot -21.3762 11.5451
ltoes -56.0128
636
root -0.736314 18.7053 5.449 9.68091 -8.11699 -1.79544
lowerback 21.5303 -0.331973 1.60154
upperback 2.42015 -0.0281518 0.452753
thorax -9.40213 -0.0713205 -0.410153
lowerneck -9.87758 -10.97 -9.72954
upperneck 15.1324 -15.2935 10.8602
head 7.8937 -7.02625 3.4602
rclavicle 2.24502e-014 6.95746e-016
rhumerus -87.6862 23.4321 -107.195
rradius 110.523
rwrist -9.80209
rhand -11.482 -43.1642
rfingers 7.12502
rthumb 14.5561 -72.6335
lclavicle 2.24502e-014 6.95746e-016
lhumerus -86.8695 -25.1663 113.502
lradius 112.09
lwrist 28.5718
lhand -25.1699 -20.3707
lfingers 7.12502
lthumb 1.34749 9.6048
rfemur -9.79423 1.3821 14.8348
rtibia 9.32364
rfoot -14.4009 -9.05863
rtoes -12.7023
lfemur -17.6432 1.47239 -12.5533
ltibia 27.8911
lfoot -21.3663 11.5412
ltoes -56.0408
637
root -0.737301 18.7071 5.4531 9.68007 -8.13229 -1.74589
lowerback 21.407 -0.339614 1.56251
upperback 2.43601 -0.0486062 0.46671
thorax -9.31811 -0.0786248 -0.366965
lowerneck -9.72208 -10.8521 -9.74114
upperneck 15.4087 -15.1697 10.8613
head 7.94441 -6.96734 3.48555
rclavicle -6.74625e-015 -1.67973e-014
rhumerus -87.6521 23.4852 -107.153
rradius 110.535
rwrist -9.77821
rhand -11.3672 -43.2591
rfingers 7.12502
rthumb 14.6667 -72.7204
lclavicle -6.74625e-015 -1.67973e-014
lhumerus -86.8386 -25.1621 113.524
lradius 112.047
lwrist 28.5916
lhand -25.2078 -20.459
lfingers 7.12502
lthumb 1.31086 9.51671
rfemur -9.81186 1.38798 14.7814
rtibia 9.37521
rfoot -14.3995 -9.09881
rtoes -12.9308
lfemur -17.6047 1.48193 -12.6078
ltibia 27.8534
lfoot -21.365 11.5367
ltoes -56.0346
638
root -0.739342 18.7092 5.46339 9.63976 -8.16632 -1.67336
lowerback 21.1714 -0.340676 1.48707
upperback 2.44321 -0.0711695 0.477262
thorax -9.18277 -0.0854182 -0.30652
lowerneck -9.4007 -10.6864 -9.81129
upperneck 15.9463 -15.024 10.9255
head 8.05934 -6.8966 3.55022
rclavicle -2.47611e-014 1.1778e-014
rhumerus -87.7027 23.6398 -107.171
rradius 110.549
rwrist -9.86258
rhand -11.3417 -43.3766
rfingers 7.12502
rthumb 14.6913 -72.836
lclavicle -2.47611e-014 1.1778e-014
lhumerus -86.942 -25.2219 113.69
lradius 111.683
lwrist 29.0309
lhand -25.228 -22.3896
lfingers 7.12502
lthumb 1.29133 7.58619
rfemur -9.75686 1.41183 14.7036
rtibia 9.40802
rfoot -14.4284 -9.11035
rtoes -13.1537
lfemur -17.4923 1.52841 -12.6939
ltibia 27.8037
lfoot -21.3521 11.5539
ltoes -56.08
639
root -0.743121 18.7101 5.48087 9.5426 -8.24262 -1.64988
lowerback 20.7617 -0.335786 1.41956
upperback 2.47544 -0.088478 0.478182
thorax -8.9252 -0.0896388 -0.263484
lowerneck -9.29742 -10.5562 -9.88568
upperneck 17.2584 -14.9804 10.911
head 8.47748 -6.85408 3.56116
rclavicle 2.17545e-014 8.15017e-015
rhumerus -87.7375 23.9348 -107.268
rradius 110.545
rwrist -10.0995
rhand -11.5433 -43.5063
rfingers 7.12502
rthumb 14.4971 -72.9798
lclavicle 2.17545e-014 8.15017e-015
lhumerus -86.9264 -25.356 113.692
lradius 111.758
lwrist 29.1428
lhand -25.4279 -22.3542
lfingers 7.12502
lthumb 1.09833 7.62273
rfemur -9.59576 1.4929 14.6787
rtibia 9.40776
rfoot -14.4197 -9.1277
rtoes -13.6069
lfemur -17.2802 1.63816 -12.7274
ltibia 27.7626
lfoot -21.3511 11.5601
ltoes -56.1715
640
root -0.747075 18.7093 5.50725 9.35113 -8.41452 -1.67387
lowerback 20.169 -0.294968 1.37067
upperback 2.51614 -0.0599815 0.454177
thorax -8.55842 -0.0727805 -0.271452
lowerneck -9.35161 -10.5807 -9.9512
upperneck 19.2734 -15.1795 10.6905
head 9.18175 -6.92019 3.45931
rclavicle -1.96548e-014 5.01931e-015
rhumerus -87.7164 24.2884 -107.379
rradius 110.52
rwrist -10.4019
rhand -11.7881 -43.624
rfingers 7.12502
rthumb 14.2612 -73.1143
lclavicle -1.96548e-014 5.01931e-015
lhumerus -86.8101 -25.6274 113.637
lradius 111.826
lwrist 29.2268
lhand -25.6712 -22.3514
lfingers 7.12502
lthumb 0.863301 7.62657
rfemur -9.29328 1.6835 14.6776
rtibia 9.36349
rfoot -14.3474 -9.15095
rtoes -13.7279
lfemur -16.911 1.75446 -12.7188
ltibia 27.7397
lfoot -21.4174 11.6093
ltoes -56.2817
